<?xml version="1.0" encoding="UTF-8" standalone="no"?>
<svg
   width="1.3779812in"
   viewBox="0 0 99.214961 94.969999"
   xml:space="preserve"
   id="Layer_1"
   x="0px"
   height="1.3190256in"
   gorn="0"
   y="0px"
   version="1.2"
   xmlns="http://www.w3.org/2000/svg"
   xmlns:svg="http://www.w3.org/2000/svg"><defs
   id="defs1" />


<path
   fill="#014cb1"
   d="M 70.885067,83.629967 H 28.421303 V 94.965194 L 0,94.965922 5.5042235e-4,-7.737383e-5 99.214962,0.00796732 c 0,0 -0.002,63.81977668 -0.002,94.96210768 l -28.327933,-0.0084 M 26.584627,4.2099529 c 0,0.783 0.635,1.417 1.417,1.417 0.783,0 1.417,-0.635 1.417,-1.417 0,-0.782 -0.635,-1.417 -1.417,-1.417 -0.782,0 -1.417,0.634 -1.417,1.417 z m 7.2,0 c 0,0.783 0.635,1.417 1.417,1.417 0.783,0 1.417,-0.635 1.417,-1.417 0,-0.782 -0.635,-1.417 -1.417,-1.417 -0.782,0 -1.417,0.634 -1.417,1.417 z m 7.2,0 c 0,0.783 0.635,1.417 1.417,1.417 0.782,0 1.417,-0.635 1.417,-1.417 0,-0.782 -0.635,-1.417 -1.417,-1.417 -0.782,0 -1.417,0.634 -1.417,1.417 z m 7.2,0 c 0,0.783 0.635,1.417 1.417,1.417 0.783,0 1.417,-0.635 1.417,-1.417 0,-0.783 -0.635,-1.417 -1.417,-1.417 -0.782,0 -1.417,0.634 -1.417,1.417 z m 7.2,0 c 0,0.783 0.635,1.417 1.417,1.417 0.782,0 1.417,-0.635 1.417,-1.417 0,-0.782 -0.635,-1.417 -1.417,-1.417 -0.782,0 -1.417,0.634 -1.417,1.417 z m 7.2,0 c 0,0.783 0.635,1.417 1.417,1.417 0.782,0 1.417,-0.635 1.417,-1.417 0,-0.782 -0.635,-1.417 -1.417,-1.417 -0.782,0 -1.417,0.634 -1.417,1.417 z m 7.2,0 c 0,0.783 0.635,1.417 1.417,1.417 0.783,0 1.417,-0.635 1.417,-1.417 0,-0.782 -0.635,-1.417 -1.417,-1.417 -0.782,0 -1.417,0.634 -1.417,1.417 z M 90.16501,8.5119673 c -0.003,1.9569997 1.58,3.5459997 3.537,3.5499997 1.957,0.003 3.546,-1.58 3.55,-3.5369997 v -0.012 c 0,-1.9570023 -1.58,-3.546 -3.537,-3.55 -1.957,-0.003 -3.546,1.58 -3.55,3.537 z M 2.0439437,89.33757 c 0,1.957003 1.58,3.546 3.537,3.549 1.957,0.003 3.549,-1.579997 3.549,-3.537 v -0.012 c 0,-1.957002 -1.58,-3.546 -3.537,-3.549 -1.957,-0.003 -3.546,1.58 -3.549,3.537 z m 88.1210663,0.01106 c 0,1.957002 1.58,3.546 3.537,3.55 1.957,0.003 3.55,-1.579996 3.55,-3.537 v -0.012 c 0,-1.957002 -1.58,-3.546 -3.537,-3.55 -1.957,-0.003 -3.55,1.579996 -3.55,3.537 z M 1.9609904,8.5119673 c -0.003,1.9569997 1.58,3.5459997 3.537,3.5489997 1.957,0.003 3.546,-1.58 3.549,-3.5369997 v -0.012 c 0.003,-1.957 -1.58,-3.546 -3.537,-3.549 -1.957,-0.003 -3.546,1.58 -3.549,3.537 z"
   id="path2" />

<text
   fill="#ffffff"
   font-size="2.67264px"
   font-family="OCRA"
   id="text3"
   x="24.947254"
   y="10.010064">GND</text>
<text
   fill="#ffffff"
   font-size="2.67264px"
   font-family="OCRA"
   id="text5"
   x="69.425507"
   y="10.010064">CS</text>
<text
   fill="#ffffff"
   font-size="2.67264px"
   font-family="OCRA"
   id="text8"
   x="32.489166"
   y="10.010064">VCC</text>
<text
   fill="#ffffff"
   font-size="2.67264px"
   font-family="OCRA"
   id="text11"
   x="61.986683"
   y="10.010064">DC</text>
<text
   fill="#ffffff"
   font-size="2.67264px"
   font-family="OCRA"
   id="text14"
   x="54.12962"
   y="10.010064">RES</text>
<text
   fill="#ffffff"
   font-size="2.67264px"
   font-family="OCRA"
   id="text20"
   x="39.633701"
   y="10.010064">SCK</text>
<text
   fill="#ffffff"
   font-size="2.67264px"
   font-family="OCRA"
   id="text26"
   x="46.762577"
   y="10.010064">SDA</text>

<line
   x2="98.652"
   fill="none"
   stroke="#ffffff"
   stroke-width="0.36"
   stroke-linecap="round"
   y1="18.313967"
   y2="18.313967"
   x1="0.85600001"
   id="line96" />
<line
   x2="98.652"
   fill="none"
   stroke="#ffffff"
   stroke-width="0.36"
   stroke-linecap="round"
   y1="18.313967"
   y2="83.509972"
   x1="98.652"
   id="line97" />
<line
   x2="0.85600001"
   fill="none"
   stroke="#ffffff"
   stroke-width="0.36"
   stroke-linecap="round"
   y1="83.509972"
   y2="83.509972"
   x1="98.652"
   id="line98" />
<line
   x2="0.85600001"
   fill="none"
   stroke="#ffffff"
   stroke-width="0.36"
   stroke-linecap="round"
   y1="83.509972"
   y2="18.313967"
   x1="0.85600001"
   id="line99" />

<circle
   fill="none"
   r="4.961"
   stroke="#ffffff"
   stroke-width="0.432"
   cx="93.709015"
   cy="8.5119677"
   id="circle84" />
<circle
   fill="none"
   r="4.961"
   stroke="#ffffff"
   stroke-width="0.432"
   cx="93.709015"
   cy="89.348412"
   id="circle88" />
<circle
   fill="none"
   r="4.961"
   stroke="#ffffff"
   stroke-width="0.432"
   cx="5.5039902"
   cy="8.5119677"
   id="circle90" />
<circle
   fill="none"
   r="4.961"
   stroke="#ffffff"
   stroke-width="0.432"
   cx="5.5878201"
   cy="89.348412"
   id="circle88-1" />

<circle
   fill="none"
   r="1.969"
   stroke="#9a916c"
   id="connector2"
   stroke-width="1.1027"
   gorn="0.2.0.2"
   cx="28.007479"
   cy="4.2099528" />
<circle
   fill="none"
   r="1.969"
   stroke="#9a916c"
   id="connector3"
   stroke-width="1.1027"
   gorn="0.2.0.3"
   cx="35.207481"
   cy="4.2099528" />
<circle
   fill="none"
   r="1.969"
   stroke="#9a916c"
   id="connector4"
   stroke-width="1.1027"
   gorn="0.2.0.4"
   cx="42.407478"
   cy="4.2099528" />
<circle
   fill="none"
   r="1.969"
   stroke="#9a916c"
   id="connector5"
   stroke-width="1.1027"
   gorn="0.2.0.5"
   cx="49.607479"
   cy="4.2099528" />
<circle
   fill="none"
   r="1.969"
   stroke="#9a916c"
   id="connector6"
   stroke-width="1.1027"
   gorn="0.2.0.6"
   cx="56.80748"
   cy="4.2099528" />
<circle
   fill="none"
   r="1.969"
   stroke="#9a916c"
   id="connector7"
   stroke-width="1.1027"
   gorn="0.2.0.7"
   cx="64.007477"
   cy="4.2099528" />
<circle
   fill="none"
   r="1.969"
   stroke="#9a916c"
   id="connector8"
   stroke-width="1.1027"
   gorn="0.2.0.8"
   cx="71.207481"
   cy="4.2099528" />

<circle
   fill="none"
   r="4.039"
   stroke="#9a916c"
   id="mountinghole1"
   stroke-width="0.9921"
   gorn="0.2.0.10"
   cx="93.709015"
   cy="8.5119677" />
<circle
   fill="none"
   r="4.039"
   stroke="#9a916c"
   id="mountinghole2"
   stroke-width="0.9921"
   gorn="0.2.0.12"
   cx="93.709015"
   cy="89.348412" />
<circle
   fill="none"
   r="4.039"
   stroke="#9a916c"
   id="mountinghole3"
   stroke-width="0.9921"
   gorn="0.2.0.12"
   cx="5.5878201"
   cy="89.348412" />
<circle
   fill="none"
   r="4.039"
   stroke="#9a916c"
   id="mountinghole4"
   stroke-width="0.9921"
   gorn="0.2.0.13"
   cx="5.5039902"
   cy="8.5119677" />

<rect
   fill="#416699"
   width="97.794998"
   stroke-miterlimit="10"
   stroke="#0000ff"
   stroke-width="0.0361"
   x="0.79699999"
   height="65.089996"
   y="18.313967"
   id="rect108" />
<rect
   fill="#140a14"
   width="94.960999"
   x="2.2149999"
   height="51.304001"
   y="19.732967"
   id="rect109" />
<rect
   fill="#333333"
   width="83.764"
   x="7.796"
   height="41.303001"
   y="24.260967"
   id="rect110" />
<path
   fill="#e6aa50"
   d="m 32.666,83.402967 v 0.946 l 0.135,0.338 0.27,0.203 c 0.752,0.256 1.089,0.921 1.007,1.542 h 31.226 v -0.461 l 0.169,-0.439 0.338,-0.405 0.473,-0.237 0.304,-0.203 0.101,-0.338 v -0.946 -1.047 H 32.666 Z"
   id="path111" />
<polygon
   points="64.427,83.892 64.731,83.419 65.204,83.115 65.744,82.98 69.529,82.98 70.069,82.879 70.508,82.575 70.846,82.102 70.948,81.595 70.948,74.229 70.846,73.655 70.508,73.182 70.069,72.911 69.529,72.776 29.828,72.776 29.321,72.911 28.848,73.182 28.544,73.655 28.409,74.229 28.409,81.595 28.544,82.102 28.848,82.575 29.321,82.879 29.828,82.98 33.646,82.98 34.186,83.115 34.626,83.419 34.963,83.892 35.065,84.433 35.065,86.448 64.291,86.448 64.291,84.433 "
   id="polygon111"
   transform="translate(0,-0.01603268)" />
</svg>
